# xmcd
#
# Track frame offsets:
#	150
#	36245
#	59685
#	82095
#	104020
#	131595
#	157150
#	183650
#
# Disc length: 2801 seconds
#
# Revision: 0
# Processed by: cddbd v1.4PL0 Copyright (c) Steve Scherf et al.
# Submitted via: dBpowerAMP V4.0
#
DISCID=790aef08
DTITLE=Gurol Agirbas - Bas Sarkilari
DYEAR=1900
DGENRE=
TTITLE0=Afrika
TTITLE1=O ya na ne
TTITLE2=Agit
TTITLE3=Leyla
TTITLE4=Fa maj
TTITLE5=Balerin
TTITLE6=Koyun Baba
TTITLE7=Blues
EXTD=
EXTT0=
EXTT1=
EXTT2=
EXTT3=
EXTT4=
EXTT5=
EXTT6=
EXTT7=
PLAYORDER=
